<svg viewBox="0 0 32 32" xmlns="http://www.w3.org/2000/svg" fill-rule="evenodd" clip-rule="evenodd" stroke-linecap="round" stroke-linejoin="round" stroke-miterlimit="1.5"><path d="M4.7 21.2s.4 2.3 1.3 3.6C7 26 9.8 28 9.8 28s3.4-2.6 6.4-8.5c0 0 1 .1 1.9-.4.9-.6.8-.4 1-1.2 0 0 2.9.5 6.6 0 2.1-.3 4.3-1 6.2-2.5 0 0-1.1-1.7-2.5-5.1-.5-1.3-2-1.8-4.6-4.6l-8.2 8.6-11.9 6.9z" fill-opacity=".1"/><path d="M12.7 14.8s-4-1.8-12 2.7c0 0 1 3.7 2.5 5.3 1.4 1.5 2.3 3.6 4.6 4.6 0 0 4.7-3 6.9-9.2l3-2s4.7 2.8 12.6-1.6c0 0-.6-3.3-3-6-2.6-3-3.8-4.7-3.8-4.7s-4.1 2.3-7.5 9.3l-3.3 1.6z" fill="#7fbbdd"/><path d="M12.4 15.5c-.7-.5-2.4-.8-4.4-.4-2 .4-4 1.3-4.8 1.8-.5.3-1.2 1-1.2 1.4 0 .7.3 1.8.8 2.4.3.3.7.5 1.4.6.8 0 2.5-1.4 3.5-2 1-.6 1.6-.8 2.7-1.2l-2.9 2.4c-1.3 1.2-2.2 1.5-2.4 2.3 0 .5 0 1.4.5 1.8.4.5.6.8 1.6.8.6 0 1 0 2.6-1.5.9-.9 2.3-3 2.7-3.7.6-1.1 1-2.2.7-3-.2-1-.4-1.4-.8-1.7zM17.4 14.2c-.3-.5-.9-1.2-.2-2.5l1.9-3c.5-.8 2-2.3 2.6-2.6.6-.4 1.5-.6 2-.2.6.4 1 1 1.3 1.5.4.6.7 1.3.2 2-.7 1-1.6.9-2.8 1.7-1.2.8-1.9 1.2-2.5 1.9l3.8-1.8c1.3-.6 2.7-1.1 3.4-.7.8.5.8.7 1 1.4.3 1-.2 1.9-.8 2.4-.5.6-1.5.9-2.6 1.2-1.4.4-4.5 1-5.8.5-1.3-.5-1.3-1.4-1.5-1.8z" fill="#fff"/><path d="M12.7 14.8s-4-1.8-12 2.7c0 0 1 3.7 2.5 5.3 1.4 1.5 2.3 3.6 4.6 4.6 0 0 4.7-3 6.9-9.2l3-2s4.7 2.8 12.6-1.6c0 0-.6-3.3-3-6-2.6-3-3.8-4.7-3.8-4.7s-4.1 2.3-7.5 9.3l-3.3 1.6z" fill="none" stroke="#000" stroke-width=".5"/><path d="M12.4 14.9s2.1-2 3-2c1.1 0 2.3 2.7 2.3 3.5 0 .8-2.1 2.4-3.1 2.3 0 0 0-1.2-.7-2.6-.8-1.3-1.5-1.2-1.5-1.2z" fill="#7fbbdd"/><path d="M13.8 15.3c.9.8.6 2 1.4 1.8 1-.2 1.4-.8 1.3-1.5 0-.7 0-.8-.4-1.6-.3-.7-1-1.1-2-.5-.7.5-1.4 1.3-1.4 1.3s.2-.3 1.1.5z" fill="#fff"/><path d="M12.4 14.9s2.1-2 3-2c1.1 0 2.3 2.7 2.3 3.5 0 .8-2.1 2.4-3.1 2.3 0 0 0-1.2-.7-2.6-.8-1.3-1.5-1.2-1.5-1.2z" fill="none" stroke="#000" stroke-width=".5"/></svg>