<?xml version="1.0" encoding="UTF-8" standalone="no"?>
<!DOCTYPE svg PUBLIC "-//W3C//DTD SVG 1.1//EN" "http://www.w3.org/Graphics/SVG/1.1/DTD/svg11.dtd">
<svg width="100%" height="100%" viewBox="0 0 268 200" version="1.1" xmlns="http://www.w3.org/2000/svg" xmlns:xlink="http://www.w3.org/1999/xlink" xml:space="preserve" xmlns:serif="http://www.serif.com/" style="fill-rule:evenodd;clip-rule:evenodd;stroke-linejoin:round;stroke-miterlimit:2;">
    <g transform="matrix(0.468079,0,0,0.468079,-68.2033,-88.9393)">
        <g>
            <g transform="matrix(0.997286,-0.0736284,0.0736284,0.997286,-28.7789,33.6146)">
                <path d="M413.282,402.697C430.717,421.629 423.307,448.426 441.683,446.137C463.409,443.431 470.245,430.091 473.316,413.402C475.812,399.841 469.903,383.973 466.172,375.321C462.554,366.931 456.247,356.304 431.136,361.307C410.251,365.467 390.772,387.048 390.772,387.048C390.772,387.048 399.453,387.682 413.282,402.697Z" style="fill:white;"/>
            </g>
            <g transform="matrix(0.997286,-0.0736284,0.0736284,0.997286,-28.7789,33.6146)">
                <path d="M386.873,397.241C371.345,383.628 335.138,374.782 290.644,380.543C246.149,386.304 196.827,402.266 178.802,412.065C168.202,417.828 151.494,429.354 150.682,439.334C149.527,453.528 153.593,477.066 165.625,491.284C171.69,498.451 186.346,508.312 200.256,510.29C218.12,512.83 259.983,482.205 282.667,470.799C306.601,458.765 313.981,454.56 338.386,447.014C338.386,447.014 287.749,475.056 266.608,490.862C236.013,513.736 218.575,522.444 212.859,539.897C209.766,549.34 212.237,567.767 220.354,577.538C229.427,588.461 233.197,595.069 254.591,597.624C267.303,599.143 276.685,598.802 314.37,568.95C336.06,551.767 370.297,509.817 381.412,494.616C397.581,472.506 405.165,451.462 402.656,435.04C399.045,411.391 394.259,403.716 386.873,397.241Z" style="fill:white;"/>
            </g>
            <g transform="matrix(0.997286,-0.0736284,0.0736284,0.997286,-28.7789,33.6146)">
                <path d="M484.733,378.934C479.33,367.886 467.092,350.452 483.886,325.205C502.172,297.717 514.898,280.938 528.117,264.632C541.335,248.326 574.793,218.447 587.739,212.53C600.684,206.613 621.026,203.852 631.889,212.841C642.874,221.93 648.416,233.377 654.92,245.478C662.331,259.267 667.318,274.808 656.518,288.278C641.093,307.515 622.242,305.294 594.912,319.844C567.244,334.573 552.644,342.943 539.244,355.703C539.244,355.703 589.835,324.272 619.633,314.632C649.432,304.991 677.626,298.944 692.669,310.458C707.712,321.973 710.631,331.463 714.425,347.187C719.107,366.59 707.231,385.165 694.294,395.838C681.356,406.51 659.958,411.756 636.875,416.852C606.42,423.576 540.278,431.917 512.819,419.366C485.361,406.815 488.488,386.613 484.733,378.934Z" style="fill:white;"/>
            </g>
        </g>
    </g>
</svg>
