<svg xmlns="http://www.w3.org/2000/svg" style="fill-rule:evenodd;clip-rule:evenodd;stroke-linecap:round;stroke-linejoin:round;stroke-miterlimit:1.5" viewBox="0 0 64 64"><path d="M208.6 548.2s11.2 46.2 31.2 71c20 24.9 79.3 61.6 79.3 61.6S385.6 623 438 498.3c0 0 18.1 1 36-11.9 17.7-12.7 16.3-7.9 21-24.8 0 0 57 6.3 131-9.7 41.7-9.1 84.3-26.3 121.5-58.8 0 0-25.4-32.9-58-101.7-12.4-26.1-41.9-34.3-98.7-88L438.1 391.2 208.6 548.2Z" style="fill-opacity:.11" transform="matrix(.10221 .00684 -.00671 .10035 -8 -13.2)"/><g transform="rotate(-35.4 34.2 80.8) scale(.10057)"><path d="M561.6 349.2s-45.3-77.9-232.8-97.2c0 0-26.5 73.2-21.1 116 5.3 43-4.7 88.1 21.4 133.2 0 0 114 5.5 225.5-72.7l74.6 3.6S673.8 534.4 857 554.4c0 0 29.7-62.6 22.2-137-8-78.7-7.5-124-7.5-124s-96.2-9.5-236.3 68.4l-73.8-12.6Z" style="fill:#7fbbdd"/><clipPath id="a"><path d="M561.6 349.2s-45.3-77.9-232.8-97.2c0 0-26.5 73.2-21.1 116 5.3 43-4.7 88.1 21.4 133.2 0 0 114 5.5 225.5-72.7l74.6 3.6S673.8 534.4 857 554.4c0 0 29.7-62.6 22.2-137-8-78.7-7.5-124-7.5-124s-96.2-9.5-236.3 68.4l-73.8-12.6Z"/></clipPath><g clip-path="url(#a)"><path d="M386.9 397.2c-15.6-13.6-51.8-22.4-96.3-16.7-44.5 5.8-93.8 21.8-111.8 31.6-10.6 5.7-27.3 17.3-28.1 27.2-1.2 14.2 2.9 37.8 15 52 6 7.2 14.2 12.1 28.1 14.1 17.9 2.6 59-24.8 81.6-36.2 24-12 38.6-14.6 63-22.2 0 0-47 31.6-68.2 47.4-30.6 22.9-51.6 28-57.3 45.5-3.1 9.4-.7 27.9 7.5 37.6 9 11 12.8 17.6 34.2 20.1 12.7 1.5 22 1.2 59.8-28.6 21.7-17.2 55.9-59.2 67-74.4 16.2-22 23.8-43.1 21.3-59.6-3.7-23.6-8.4-31.3-15.8-37.8Z" style="fill:#fff" transform="scale(.88664) rotate(31.2 485 792.2)"/><path d="M484.7 379c-5.4-11.1-17.6-28.5-.8-53.8a739 739 0 0 1 44.2-60.6c13.2-16.3 46.7-46.2 59.6-52 13-6 33.3-8.7 44.2.2 11 9.1 16.5 20.6 23 32.7 7.4 13.8 12.4 29.3 1.6 42.8-15.4 19.2-34.3 17-61.6 31.5-27.7 14.8-42.3 23.1-55.7 35.9 0 0 52.2-21.6 82-31.2 29.8-9.7 59.8-20 74.8-8.5s14.6 15.5 18.4 31.2c4.7 19.4-7.2 38-20.1 48.6-13 10.7-34.3 16-57.4 21-30.5 6.8-96.6 15.1-124 2.6-27.5-12.6-24.4-32.8-28.2-40.5Z" style="fill:#fff" transform="scale(.87906) rotate(31.2 487.2 893.5)"/></g><path d="M561.6 349.2s-45.3-77.9-232.8-97.2c0 0-26.5 73.2-21.1 116 5.3 43-4.7 88.1 21.4 133.2 0 0 114 5.5 225.5-72.7l74.6 3.6S673.8 534.4 857 554.4c0 0 29.7-62.6 22.2-137-8-78.7-7.5-124-7.5-124s-96.2-9.5-236.3 68.4l-73.8-12.6Z" style="fill:none;stroke:#000;stroke-width:16.57px"/></g><g transform="rotate(-4.2 -78 211) scale(.10057)"><path d="M385 385.5s45.8-37.6 65-35.4c21.7 2.5 40.5 57.6 40.2 74.3-.3 16.7-47.3 45.5-67.7 41.8 0 0 3-24-10.4-52.9-13.4-28.8-27.2-27.8-27.2-27.8Z" style="fill:#7fbbdd"/><clipPath id="b"><path d="M385 385.5s45.8-37.6 65-35.4c21.7 2.5 40.5 57.6 40.2 74.3-.3 16.7-47.3 45.5-67.7 41.8 0 0 3-24-10.4-52.9-13.4-28.8-27.2-27.8-27.2-27.8Z"/></clipPath><g clip-path="url(#b)"><path d="M413.3 402.7c17.5 18.9 10 45.7 28.4 43.4 21.7-2.7 30.9-15.7 31.6-32.7.7-17-1-19.5-7.1-38-6.1-18.7-18.2-23.2-43.4-18.2-20.8 4.1-17.8 3-24 10-6.4 7-14.5 26-14.5 26s8.4-12.7 29 9.5Z" style="fill:#fff" transform="matrix(.90907 0 0 .85852 37 52.2)"/></g><path d="M385 385.5s45.8-37.6 65-35.4c21.7 2.5 40.5 57.6 40.2 74.3-.3 16.7-47.3 45.5-67.7 41.8 0 0 3-24-10.4-52.9-13.4-28.8-27.2-27.8-27.2-27.8Z" style="fill:none;stroke:#000;stroke-width:16.57px"/></g></svg>
