<?xml version="1.0" encoding="UTF-8" standalone="no"?>
<!DOCTYPE svg PUBLIC "-//W3C//DTD SVG 1.1//EN" "http://www.w3.org/Graphics/SVG/1.1/DTD/svg11.dtd">
<svg width="100%" height="100%" viewBox="0 0 129 118" version="1.1" xmlns="http://www.w3.org/2000/svg" xmlns:xlink="http://www.w3.org/1999/xlink" xml:space="preserve" xmlns:serif="http://www.serif.com/" style="fill-rule:evenodd;clip-rule:evenodd;stroke-linecap:round;stroke-linejoin:round;stroke-miterlimit:1.5;">
    <g transform="matrix(-0.0780582,-0.0830776,0.0830776,-0.0780582,77.834,168.794)">
        <path d="M644.48,1118.61C644.48,1118.61 806.764,1026.01 891.665,975.753C976.567,925.5 982.769,924.276 1009.16,903.784C1009.16,903.784 1007.49,875.063 943.614,832.041C879.742,789.019 644.353,646.513 625.795,627.893C607.236,609.274 481.187,527.591 463.17,433.328C454.932,390.225 461.451,356.018 460.734,318.795C459.754,267.952 459.103,245.218 472.095,220.652C496.64,174.24 524.826,135.064 555.788,106.954C555.788,106.954 597.031,185.516 607.849,201.73C618.667,217.945 546.869,260.246 511.516,304.83C503.504,314.933 500.336,322.503 497.484,339.255C496.534,344.838 505.042,376.778 554.972,435.158C579.574,463.924 684.289,541.376 808.422,624.728C939.345,712.639 973.68,731.153 998.255,749.82C1026.63,771.372 1058.48,785.366 1067.87,826.2C1076.91,865.529 1061.69,856.518 1071.92,900.722C1082.15,944.925 1080.75,957.434 1076.99,969.533C1073.23,981.633 1049.78,1011.55 998.316,1045.92C946.848,1080.29 759.332,1187.43 708.543,1212.98C657.754,1238.52 644.48,1118.61 644.48,1118.61Z" style="fill:url(#_Linear1);stroke:black;stroke-width:5.03px;"/>
        <path d="M981.676,90.602C981.676,90.602 976.643,172.459 978.321,178.853C979.998,185.247 1038.96,211.275 1048.24,213.289C1057.53,215.302 1063.24,145.677 1044.61,126.345C1025.98,107.012 997.45,86.686 985.66,86.004C983.81,85.896 981.676,90.602 981.676,90.602Z" style="fill:rgb(68,102,144);stroke:black;stroke-width:7.55px;"/>
        <g transform="matrix(0.663858,-0.193466,1.59156,5.46127,-174.164,-189.802)">
            <path d="M946.553,186.231C946.553,184.322 933.801,182.772 918.094,182.772L568.913,182.772C553.207,182.772 540.455,184.322 540.455,186.231C540.455,188.14 553.207,189.691 568.913,189.691L918.094,189.691C933.801,189.691 946.553,188.14 946.553,186.231Z" style="fill:rgb(35,161,200);"/>
            <clipPath id="_clip2">
                <path d="M946.553,186.231C946.553,184.322 933.801,182.772 918.094,182.772L568.913,182.772C553.207,182.772 540.455,184.322 540.455,186.231C540.455,188.14 553.207,189.691 568.913,189.691L918.094,189.691C933.801,189.691 946.553,188.14 946.553,186.231Z"/>
            </clipPath>
            <g clip-path="url(#_clip2)">
                <g transform="matrix(0.90939,-0.000616204,0.00444128,0.291677,34.3669,131.623)">
                    <rect x="783.616" y="169.888" width="261.315" height="36.231" style="fill:rgb(241,185,14);"/>
                </g>
            </g>
            <path d="M946.553,186.231C946.553,184.322 933.801,182.772 918.094,182.772L568.913,182.772C553.207,182.772 540.455,184.322 540.455,186.231C540.455,188.14 553.207,189.691 568.913,189.691L918.094,189.691C933.801,189.691 946.553,188.14 946.553,186.231Z" style="fill:none;stroke:black;stroke-width:0.93px;"/>
        </g>
        <path d="M1090.09,124.252C1090.09,124.252 624.662,162.616 602.245,174.247C597.48,176.72 621.696,200.477 605.114,216.395C583.96,236.702 570.195,249.797 557.033,261.331C543.729,272.99 532.651,280.974 510.799,307.69C480.581,344.635 455.569,399.899 476.783,431.731C496.148,460.789 811.917,534.993 860.989,530.634C910.062,526.274 1090.09,124.252 1090.09,124.252Z" style="fill:none;"/>
        <clipPath id="_clip3">
            <path d="M1090.09,124.252C1090.09,124.252 624.662,162.616 602.245,174.247C597.48,176.72 621.696,200.477 605.114,216.395C583.96,236.702 570.195,249.797 557.033,261.331C543.729,272.99 532.651,280.974 510.799,307.69C480.581,344.635 455.569,399.899 476.783,431.731C496.148,460.789 811.917,534.993 860.989,530.634C910.062,526.274 1090.09,124.252 1090.09,124.252Z"/>
        </clipPath>
        <g clip-path="url(#_clip3)">
            <g transform="matrix(1.19803,-0.0686305,0.325337,5.67915,-167.984,-821.031)">
                <path d="M946.553,186.231C946.553,184.322 939.205,182.772 930.154,182.772L556.854,182.772C547.803,182.772 540.455,184.322 540.455,186.231C540.455,188.14 547.803,189.691 556.854,189.691L930.154,189.691C939.205,189.691 946.553,188.14 946.553,186.231Z" style="fill:rgb(190,53,31);"/>
                <clipPath id="_clip4">
                    <path d="M946.553,186.231C946.553,184.322 939.205,182.772 930.154,182.772L556.854,182.772C547.803,182.772 540.455,184.322 540.455,186.231C540.455,188.14 547.803,189.691 556.854,189.691L930.154,189.691C939.205,189.691 946.553,188.14 946.553,186.231Z"/>
                </clipPath>
                <g clip-path="url(#_clip4)">
                    <g transform="matrix(0.90939,-0.000616204,0.00444128,0.291677,34.3669,131.623)">
                        <rect x="783.616" y="169.888" width="261.315" height="36.231" style="fill:rgb(53,152,48);"/>
                    </g>
                </g>
                <path d="M946.553,186.231C946.553,184.322 939.205,182.772 930.154,182.772L556.854,182.772C547.803,182.772 540.455,184.322 540.455,186.231C540.455,188.14 547.803,189.691 556.854,189.691L930.154,189.691C939.205,189.691 946.553,188.14 946.553,186.231Z" style="fill:none;stroke:black;stroke-width:0.89px;"/>
            </g>
            <g transform="matrix(1.19706,0.0837891,-0.397194,5.67457,-86.5104,-817.118)">
                <path d="M946.553,186.231C946.553,184.322 939.205,182.772 930.154,182.772L556.854,182.772C547.803,182.772 540.455,184.322 540.455,186.231C540.455,188.14 547.803,189.691 556.854,189.691L930.154,189.691C939.205,189.691 946.553,188.14 946.553,186.231Z" style="fill:rgb(35,161,200);"/>
                <clipPath id="_clip5">
                    <path d="M946.553,186.231C946.553,184.322 939.205,182.772 930.154,182.772L556.854,182.772C547.803,182.772 540.455,184.322 540.455,186.231C540.455,188.14 547.803,189.691 556.854,189.691L930.154,189.691C939.205,189.691 946.553,188.14 946.553,186.231Z"/>
                </clipPath>
                <g clip-path="url(#_clip5)">
                    <g transform="matrix(0.90939,-0.000616204,0.00444128,0.291677,34.3669,131.623)">
                        <rect x="783.616" y="169.888" width="261.315" height="36.231" style="fill:rgb(241,185,14);"/>
                    </g>
                </g>
                <path d="M946.553,186.231C946.553,184.322 939.205,182.772 930.154,182.772L556.854,182.772C547.803,182.772 540.455,184.322 540.455,186.231C540.455,188.14 547.803,189.691 556.854,189.691L930.154,189.691C939.205,189.691 946.553,188.14 946.553,186.231Z" style="fill:none;stroke:black;stroke-width:0.89px;"/>
            </g>
            <g transform="matrix(-0.91113,-0.108563,0.673031,-5.6485,1216.23,1540.66)">
                <path d="M946.553,186.231C946.553,184.322 936.943,182.772 925.106,182.772L561.901,182.772C550.064,182.772 540.455,184.322 540.455,186.231C540.455,188.14 550.064,189.691 561.901,189.691L925.106,189.691C936.943,189.691 946.553,188.14 946.553,186.231Z" style="fill:rgb(190,53,31);"/>
                <clipPath id="_clip6">
                    <path d="M946.553,186.231C946.553,184.322 936.943,182.772 925.106,182.772L561.901,182.772C550.064,182.772 540.455,184.322 540.455,186.231C540.455,188.14 550.064,189.691 561.901,189.691L925.106,189.691C936.943,189.691 946.553,188.14 946.553,186.231Z"/>
                </clipPath>
                <g clip-path="url(#_clip6)">
                    <g transform="matrix(0.90939,-0.000616204,0.00444128,0.291677,34.3669,131.623)">
                        <rect x="783.616" y="169.888" width="261.315" height="36.231" style="fill:rgb(53,152,48);"/>
                    </g>
                </g>
                <path d="M946.553,186.231C946.553,184.322 936.943,182.772 925.106,182.772L561.901,182.772C550.064,182.772 540.455,184.322 540.455,186.231C540.455,188.14 550.064,189.691 561.901,189.691L925.106,189.691C936.943,189.691 946.553,188.14 946.553,186.231Z" style="fill:none;stroke:black;stroke-width:0.9px;"/>
            </g>
        </g>
        <path d="M986.583,86.959C992.977,87.458 1051.12,126.513 1049.44,177.196C1047.96,221.888 1026.38,238.365 1002.17,260.443C964.277,294.986 822.918,388.298 768.541,419.085C714.164,449.871 564.551,531.649 521.14,573.816C496.284,597.959 450.175,655.541 452.538,699.135C454.797,740.802 457.729,744.779 458.98,749.285C460.231,753.79 447.071,801.511 449.849,825.165C452.626,848.82 469.783,905.514 537.69,955.169C607.175,1005.98 713.368,1079.24 713.368,1079.24L819.428,1017.25C819.428,1017.25 551.406,867.598 493.698,766.847C493.698,766.847 521.947,679.528 667.156,600.725C812.985,521.585 931.349,450.986 974.113,418.834C1055.83,357.396 1079.37,309.94 1081.01,297.722C1083.36,280.196 1079.34,259.297 1077.67,237.146C1076,214.995 1078.18,208.039 1080.22,194.555C1083.94,169.925 1076.53,145.22 1061.63,132.432C995.76,75.893 980.189,86.459 986.583,86.959Z" style="fill:url(#_Linear7);stroke:black;stroke-width:5.48px;"/>
        <path d="M573.516,888.53L996.893,899.847L970.648,928.316L900.382,969.128L579.017,969.157L573.516,888.53Z" style="fill:none;"/>
        <clipPath id="_clip8">
            <path d="M573.516,888.53L996.893,899.847L970.648,928.316L900.382,969.128L579.017,969.157L573.516,888.53Z"/>
        </clipPath>
        <g clip-path="url(#_clip8)">
            <g transform="matrix(-1.05907,-0.0475225,0.254995,-5.68274,1538.29,2035.42)">
                <path d="M946.553,186.231C946.553,184.322 938.235,182.772 927.99,182.772L559.017,182.772C548.772,182.772 540.455,184.322 540.455,186.231C540.455,188.14 548.772,189.691 559.017,189.691L927.99,189.691C938.235,189.691 946.553,188.14 946.553,186.231Z" style="fill:rgb(35,161,200);"/>
                <clipPath id="_clip9">
                    <path d="M946.553,186.231C946.553,184.322 938.235,182.772 927.99,182.772L559.017,182.772C548.772,182.772 540.455,184.322 540.455,186.231C540.455,188.14 548.772,189.691 559.017,189.691L927.99,189.691C938.235,189.691 946.553,188.14 946.553,186.231Z"/>
                </clipPath>
                <g clip-path="url(#_clip9)">
                    <g transform="matrix(0.90939,-0.000616204,0.00444128,0.291677,34.3669,131.623)">
                        <rect x="783.616" y="169.888" width="261.315" height="36.231" style="fill:rgb(241,185,14);"/>
                    </g>
                </g>
                <path d="M946.553,186.231C946.553,184.322 938.235,182.772 927.99,182.772L559.017,182.772C548.772,182.772 540.455,184.322 540.455,186.231C540.455,188.14 548.772,189.691 559.017,189.691L927.99,189.691C938.235,189.691 946.553,188.14 946.553,186.231Z" style="fill:none;stroke:black;stroke-width:0.89px;"/>
            </g>
        </g>
        <g transform="matrix(1.0968,-0.142951,0.735185,5.64075,-246.656,-150.292)">
            <path d="M946.553,186.231C946.553,184.322 938.581,182.772 928.761,182.772L558.246,182.772C548.427,182.772 540.455,184.322 540.455,186.231C540.455,188.14 548.427,189.691 558.246,189.691L928.761,189.691C938.581,189.691 946.553,188.14 946.553,186.231Z" style="fill:rgb(190,53,31);"/>
            <clipPath id="_clip10">
                <path d="M946.553,186.231C946.553,184.322 938.581,182.772 928.761,182.772L558.246,182.772C548.427,182.772 540.455,184.322 540.455,186.231C540.455,188.14 548.427,189.691 558.246,189.691L928.761,189.691C938.581,189.691 946.553,188.14 946.553,186.231Z"/>
            </clipPath>
            <g clip-path="url(#_clip10)">
                <g transform="matrix(0.90939,-0.000616204,0.00444128,0.291677,34.3669,131.623)">
                    <rect x="783.616" y="169.888" width="261.315" height="36.231" style="fill:rgb(53,152,48);"/>
                </g>
            </g>
            <path d="M946.553,186.231C946.553,184.322 938.581,182.772 928.761,182.772L558.246,182.772C548.427,182.772 540.455,184.322 540.455,186.231C540.455,188.14 548.427,189.691 558.246,189.691L928.761,189.691C938.581,189.691 946.553,188.14 946.553,186.231Z" style="fill:none;stroke:black;stroke-width:0.92px;"/>
        </g>
        <path d="M459.66,370.153C459.66,370.153 488.131,266.895 593.115,209.593" style="fill:none;stroke:black;stroke-width:5.03px;"/>
        <path d="M1077.62,206.214C1077.62,206.214 1062.25,250.6 1001.31,290.199" style="fill:none;stroke:black;stroke-width:5.03px;"/>
        <path d="M456.645,767.761C456.645,767.761 480.862,701.37 541.749,658.054" style="fill:none;stroke:black;stroke-width:5.03px;"/>
        <path d="M492.88,765.707C492.88,765.707 471.314,795.713 476.674,835.868C482.034,876.023 506.749,917.011 562.765,962.268" style="fill:none;stroke:black;stroke-width:5.03px;"/>
        <path d="M1069.42,860.345C1069.42,860.345 1052.17,912.407 927.751,975.135" style="fill:none;stroke:black;stroke-width:5.03px;"/>
        <path d="M976.352,754.574C976.352,754.574 1036.3,791.563 1044.78,830.047C1052.79,866.391 1029.93,889.778 1009.78,904.254" style="fill:none;stroke:black;stroke-width:5.03px;"/>
        <path d="M500.138,325.994C500.138,325.994 469.351,372.023 476.551,426.833C479.562,449.752 494.787,474.143 539.206,530.519" style="fill:none;stroke:black;stroke-width:5.03px;"/>
        <g transform="matrix(1.01209,0,0,1.01933,-6.70952,-1.91053)">
            <path d="M586.507,147.173C586.507,147.173 607.014,187.627 609.231,198.18C611.448,208.732 604.384,216.422 597.508,209.998C583.244,196.67 565.08,141.329 557.468,117.695C555.997,113.128 551.801,104.22 559.391,100.323C566.169,96.843 574.512,98.286 578.405,118.289C582.297,138.291 581.709,136.376 586.507,147.173Z" style="fill:rgb(68,102,144);stroke:black;stroke-width:7.43px;"/>
        </g>
    </g>
    <defs>
        <linearGradient id="_Linear1" x1="0" y1="0" x2="1" y2="0" gradientUnits="userSpaceOnUse" gradientTransform="matrix(-431.782,-26.4579,26.4579,-431.782,993.916,682.984)"><stop offset="0" style="stop-color:rgb(68,102,144);stop-opacity:1"/><stop offset="0.33" style="stop-color:rgb(114,160,217);stop-opacity:1"/><stop offset="1" style="stop-color:rgb(74,114,161);stop-opacity:1"/></linearGradient>
        <linearGradient id="_Linear7" x1="0" y1="0" x2="1" y2="0" gradientUnits="userSpaceOnUse" gradientTransform="matrix(341.564,5.18233,-5.18233,341.564,554.495,531.489)"><stop offset="0" style="stop-color:rgb(68,102,144);stop-opacity:1"/><stop offset="0.4" style="stop-color:rgb(137,178,227);stop-opacity:1"/><stop offset="0.67" style="stop-color:rgb(81,124,175);stop-opacity:1"/><stop offset="1" style="stop-color:rgb(65,109,160);stop-opacity:1"/></linearGradient>
    </defs>
</svg>
