<?xml version="1.0" encoding="UTF-8" standalone="no"?>
<!DOCTYPE svg PUBLIC "-//W3C//DTD SVG 1.1//EN" "http://www.w3.org/Graphics/SVG/1.1/DTD/svg11.dtd">
<svg width="260" height="100%" viewBox="0 0 675 500" version="1.1" xmlns="http://www.w3.org/2000/svg" xmlns:xlink="http://www.w3.org/1999/xlink" xml:space="preserve" xmlns:serif="http://www.serif.com/" style="fill-rule:evenodd;clip-rule:evenodd;stroke-linecap:round;stroke-linejoin:round;stroke-miterlimit:1.5;">
    <g transform="matrix(0.25,0,0,0.25,27.6507,-4.33843)">
        <g transform="matrix(3.90472,0,0,3.90472,-487.243,-563.358)">
            <g transform="matrix(1.0163,0.0679943,-0.0667548,0.997769,47.8982,-46.3973)">
                <path d="M208.629,548.17C208.629,548.17 219.768,594.389 239.814,619.222C259.86,644.055 319.119,680.831 319.119,680.831C319.119,680.831 385.557,622.915 437.87,498.346C437.87,498.346 456.021,499.236 473.808,486.446C491.594,473.656 490.239,478.534 494.883,461.62C494.883,461.62 551.848,467.937 625.826,451.863C667.634,442.778 710.238,425.649 747.382,393.142C747.382,393.142 721.992,360.244 689.422,291.45C677.029,265.275 647.518,257.098 590.747,203.309L438.083,391.273L208.629,548.17Z" style="fill-opacity:0.11;"/>
            </g>
            <g>
                <g transform="matrix(0.815195,-0.579186,0.579186,0.815195,-274.671,430.768)">
                    <path d="M561.588,349.155C561.588,349.155 516.297,271.341 328.841,252.044C328.841,252.044 302.342,325.189 307.686,368.056C313.031,410.922 303.001,456.147 329.132,501.174C329.132,501.174 443.114,506.743 554.649,428.469L629.204,432.112C629.204,432.112 673.755,534.351 856.964,554.375C856.964,554.375 886.717,491.768 879.193,417.478C871.211,338.673 871.716,293.443 871.716,293.443C871.716,293.443 775.485,283.928 635.418,361.795L561.588,349.155Z" style="fill:rgb(127,187,221);stroke:black;stroke-width:3.06px;"/>
                </g>
                <g transform="matrix(0.997286,-0.0736284,0.0736284,0.997286,-28.7789,33.6146)">
                    <path d="M386.873,397.241C371.345,383.628 335.138,374.782 290.644,380.543C246.149,386.304 196.827,402.266 178.802,412.065C168.202,417.828 151.494,429.354 150.682,439.334C149.527,453.528 153.593,477.066 165.625,491.284C171.69,498.451 186.346,508.312 200.256,510.29C218.12,512.83 259.983,482.205 282.667,470.799C306.601,458.765 313.981,454.56 338.386,447.014C338.386,447.014 287.749,475.056 266.608,490.862C236.013,513.736 218.575,522.444 212.859,539.897C209.766,549.34 212.237,567.767 220.354,577.538C229.427,588.461 233.197,595.069 254.591,597.624C267.303,599.143 276.685,598.802 314.37,568.95C336.06,551.767 370.297,509.817 381.412,494.616C397.581,472.506 405.165,451.462 402.656,435.04C399.045,411.391 394.259,403.716 386.873,397.241Z" style="fill:white;"/>
                </g>
                <g transform="matrix(0.997286,-0.0736284,0.0736284,0.997286,-28.7789,33.6146)">
                    <path d="M484.733,378.934C479.33,367.886 467.092,350.452 483.886,325.205C502.172,297.717 514.898,280.938 528.117,264.632C541.335,248.326 574.793,218.447 587.739,212.53C600.684,206.613 621.026,203.852 631.889,212.841C642.874,221.93 648.416,233.377 654.92,245.478C662.331,259.267 667.318,274.808 656.518,288.278C641.093,307.515 622.242,305.294 594.912,319.844C567.244,334.573 552.644,342.943 539.244,355.703C539.244,355.703 589.835,324.272 619.633,314.632C649.432,304.991 677.626,298.944 692.669,310.458C707.712,321.973 710.631,331.463 714.425,347.187C719.107,366.59 707.231,385.165 694.294,395.838C681.356,406.51 659.958,411.756 636.875,416.852C606.42,423.576 540.278,431.917 512.819,419.366C485.361,406.815 488.488,386.613 484.733,378.934Z" style="fill:white;"/>
                </g>
            </g>
            <g transform="matrix(0.997286,-0.0736284,0.0736284,0.997286,-28.7789,33.6146)">
                <path d="M384.916,385.459C384.916,385.459 430.781,347.868 450.027,350.093C471.685,352.596 490.49,407.747 490.208,424.416C489.927,441.085 442.948,469.866 422.537,466.24C422.537,466.24 425.525,442.129 412.114,413.335C398.702,384.54 384.916,385.459 384.916,385.459Z" style="fill:rgb(127,187,221);"/>
                <clipPath id="_clip1">
                    <path d="M384.916,385.459C384.916,385.459 430.781,347.868 450.027,350.093C471.685,352.596 490.49,407.747 490.208,424.416C489.927,441.085 442.948,469.866 422.537,466.24C422.537,466.24 425.525,442.129 412.114,413.335C398.702,384.54 384.916,385.459 384.916,385.459Z"/>
                </clipPath>
                <g clip-path="url(#_clip1)">
                    <path d="M413.282,402.697C430.77,421.58 423.307,448.426 441.683,446.137C463.409,443.431 472.604,430.356 473.316,413.402C474.028,396.448 472.245,393.911 466.172,375.321C460.099,356.731 447.953,352.176 422.842,357.179C401.957,361.339 405.039,360.215 398.735,367.228C392.43,374.242 384.315,393.182 384.315,393.182C384.315,393.182 392.715,380.492 413.282,402.697Z" style="fill:white;"/>
                </g>
                <path d="M384.916,385.459C384.916,385.459 430.781,347.868 450.027,350.093C471.685,352.596 490.49,407.747 490.208,424.416C489.927,441.085 442.948,469.866 422.537,466.24C422.537,466.24 425.525,442.129 412.114,413.335C398.702,384.54 384.916,385.459 384.916,385.459Z" style="fill:none;stroke:black;stroke-width:2.91px;"/>
            </g>
        </g>
        <g transform="matrix(1.15266,0,0,1.15266,-37.0513,19.7427)">
            <g transform="matrix(55.778,-200.728,200.728,55.778,373.323,744.807)">
                <path d="M0.149,-0.534C0.149,-0.583 0.132,-0.608 0.098,-0.608C0.089,-0.608 0.082,-0.607 0.077,-0.606C0.066,-0.604 0.057,-0.603 0.05,-0.603C0.041,-0.603 0.034,-0.606 0.028,-0.613C0.022,-0.619 0.019,-0.627 0.019,-0.636C0.019,-0.659 0.033,-0.671 0.061,-0.671C0.062,-0.671 0.067,-0.671 0.076,-0.67C0.176,-0.663 0.223,-0.66 0.216,-0.66L0.226,-0.66L0.467,-0.667C0.472,-0.667 0.489,-0.668 0.519,-0.67C0.53,-0.671 0.539,-0.671 0.548,-0.671C0.583,-0.671 0.6,-0.656 0.6,-0.625C0.6,-0.62 0.599,-0.603 0.596,-0.574C0.594,-0.553 0.593,-0.533 0.593,-0.515C0.593,-0.492 0.594,-0.475 0.595,-0.466C0.598,-0.447 0.599,-0.432 0.599,-0.423C0.599,-0.398 0.587,-0.385 0.563,-0.385C0.539,-0.385 0.527,-0.403 0.527,-0.438L0.527,-0.49C0.527,-0.546 0.515,-0.579 0.492,-0.589C0.475,-0.596 0.43,-0.6 0.358,-0.6C0.311,-0.6 0.283,-0.599 0.274,-0.597C0.245,-0.59 0.231,-0.57 0.231,-0.537L0.231,-0.47C0.23,-0.461 0.23,-0.454 0.23,-0.45L0.23,-0.437C0.23,-0.41 0.236,-0.395 0.248,-0.391C0.253,-0.39 0.261,-0.389 0.272,-0.389L0.313,-0.389C0.355,-0.389 0.376,-0.403 0.376,-0.432C0.376,-0.44 0.375,-0.45 0.373,-0.463C0.371,-0.476 0.37,-0.487 0.37,-0.497C0.37,-0.524 0.382,-0.537 0.406,-0.537C0.43,-0.537 0.442,-0.523 0.442,-0.494C0.442,-0.489 0.44,-0.468 0.435,-0.432C0.431,-0.401 0.429,-0.374 0.429,-0.351C0.429,-0.338 0.43,-0.314 0.433,-0.28C0.434,-0.275 0.435,-0.263 0.438,-0.245C0.44,-0.23 0.441,-0.219 0.441,-0.21C0.441,-0.186 0.429,-0.174 0.405,-0.174C0.382,-0.174 0.37,-0.188 0.37,-0.216C0.37,-0.223 0.371,-0.234 0.373,-0.248C0.374,-0.262 0.375,-0.273 0.375,-0.28C0.375,-0.309 0.356,-0.323 0.318,-0.323L0.273,-0.323C0.254,-0.323 0.242,-0.32 0.238,-0.313C0.233,-0.306 0.231,-0.292 0.231,-0.27L0.231,-0.208C0.231,-0.197 0.231,-0.183 0.232,-0.165C0.233,-0.143 0.233,-0.128 0.233,-0.121C0.234,-0.094 0.239,-0.078 0.249,-0.071C0.256,-0.066 0.274,-0.064 0.301,-0.064L0.437,-0.064C0.476,-0.064 0.503,-0.07 0.518,-0.082C0.533,-0.093 0.54,-0.115 0.54,-0.147C0.54,-0.157 0.54,-0.172 0.539,-0.192C0.538,-0.211 0.537,-0.226 0.537,-0.236C0.537,-0.266 0.549,-0.281 0.573,-0.281C0.598,-0.281 0.611,-0.266 0.611,-0.235C0.611,-0.223 0.61,-0.205 0.609,-0.18C0.608,-0.155 0.607,-0.137 0.607,-0.125C0.607,-0.116 0.608,-0.102 0.609,-0.084C0.61,-0.065 0.61,-0.051 0.61,-0.042C0.61,-0.011 0.595,0.005 0.564,0.005C0.557,0.005 0.545,0.004 0.529,0.003C0.521,0.002 0.506,0.002 0.485,0.002C0.49,0.002 0.464,0.001 0.407,-0C0.35,-0.001 0.301,-0.002 0.26,-0.002C0.197,-0.002 0.136,0 0.076,0.004C0.073,0.004 0.07,0.004 0.067,0.005L0.061,0.005C0.033,0.005 0.019,-0.007 0.019,-0.031C0.019,-0.052 0.029,-0.063 0.05,-0.063C0.053,-0.063 0.062,-0.062 0.077,-0.061C0.084,-0.059 0.091,-0.058 0.098,-0.058C0.132,-0.058 0.149,-0.083 0.149,-0.133L0.149,-0.534Z" style="fill-rule:nonzero;"/>
            </g>
            <g transform="matrix(90.4983,-187.651,187.651,90.4983,408.587,618.133)">
                <path d="M0.129,-0.1L0.268,-0.259L0.129,-0.423C0.12,-0.434 0.108,-0.439 0.095,-0.439C0.09,-0.439 0.086,-0.439 0.083,-0.438L0.066,-0.434C0.063,-0.433 0.059,-0.433 0.052,-0.433C0.03,-0.433 0.019,-0.444 0.019,-0.465C0.019,-0.488 0.033,-0.499 0.06,-0.499L0.063,-0.499C0.064,-0.499 0.08,-0.498 0.113,-0.495C0.13,-0.494 0.144,-0.493 0.155,-0.493C0.166,-0.493 0.183,-0.494 0.204,-0.496C0.225,-0.498 0.241,-0.499 0.252,-0.499C0.279,-0.499 0.293,-0.488 0.293,-0.465C0.293,-0.444 0.28,-0.433 0.255,-0.433C0.25,-0.433 0.245,-0.434 0.24,-0.435L0.225,-0.439L0.219,-0.439C0.216,-0.439 0.215,-0.438 0.215,-0.437C0.216,-0.433 0.219,-0.428 0.224,-0.423L0.315,-0.313L0.41,-0.423C0.416,-0.43 0.419,-0.434 0.419,-0.437C0.418,-0.438 0.417,-0.439 0.414,-0.439C0.411,-0.439 0.405,-0.438 0.398,-0.436C0.39,-0.434 0.384,-0.433 0.38,-0.433C0.356,-0.433 0.344,-0.444 0.344,-0.467C0.344,-0.489 0.358,-0.5 0.386,-0.5C0.385,-0.5 0.402,-0.498 0.439,-0.495C0.454,-0.494 0.469,-0.493 0.486,-0.493C0.503,-0.493 0.52,-0.494 0.539,-0.496C0.558,-0.498 0.571,-0.499 0.579,-0.499C0.608,-0.499 0.623,-0.488 0.623,-0.465C0.623,-0.443 0.612,-0.432 0.589,-0.432C0.584,-0.432 0.576,-0.433 0.566,-0.436C0.556,-0.439 0.548,-0.44 0.543,-0.44C0.527,-0.44 0.505,-0.424 0.477,-0.392L0.361,-0.26L0.517,-0.076C0.526,-0.065 0.538,-0.059 0.551,-0.059C0.555,-0.059 0.561,-0.06 0.57,-0.061C0.578,-0.062 0.584,-0.063 0.588,-0.063C0.612,-0.063 0.624,-0.052 0.624,-0.031C0.624,-0.008 0.61,0.004 0.582,0.004L0.574,0.004L0.535,-0.001C0.524,-0.002 0.508,-0.003 0.487,-0.003C0.469,-0.003 0.451,-0.002 0.433,-0L0.397,0.004L0.386,0.004C0.355,0.004 0.339,-0.007 0.339,-0.028C0.339,-0.051 0.351,-0.063 0.376,-0.063C0.385,-0.063 0.397,-0.062 0.413,-0.059C0.414,-0.058 0.417,-0.058 0.42,-0.058C0.427,-0.058 0.43,-0.061 0.43,-0.066C0.43,-0.068 0.429,-0.07 0.427,-0.072L0.424,-0.076L0.313,-0.206L0.2,-0.076C0.195,-0.071 0.193,-0.067 0.193,-0.064C0.193,-0.061 0.196,-0.059 0.203,-0.059C0.208,-0.059 0.215,-0.06 0.224,-0.061C0.233,-0.062 0.24,-0.063 0.245,-0.063C0.274,-0.063 0.288,-0.051 0.288,-0.028C0.288,-0.007 0.274,0.004 0.245,0.004L0.231,0.004L0.191,-0C0.171,-0.002 0.153,-0.003 0.138,-0.003C0.126,-0.003 0.112,-0.002 0.095,-0C0.072,0.003 0.056,0.004 0.045,0.004C0.017,0.004 0.003,-0.007 0.003,-0.03C0.003,-0.052 0.015,-0.063 0.039,-0.063C0.043,-0.063 0.049,-0.063 0.057,-0.062C0.065,-0.061 0.071,-0.06 0.075,-0.06C0.088,-0.06 0.106,-0.073 0.129,-0.1Z" style="fill-rule:nonzero;"/>
            </g>
            <g transform="matrix(119.178,-170.878,170.878,119.178,462.548,506.185)">
                <path d="M0.191,-0.471L0.191,-0.439C0.228,-0.491 0.279,-0.517 0.344,-0.517C0.411,-0.517 0.464,-0.494 0.503,-0.448C0.542,-0.402 0.562,-0.34 0.562,-0.261C0.562,-0.176 0.541,-0.109 0.5,-0.059C0.458,-0.008 0.402,0.017 0.332,0.017C0.274,0.017 0.227,-0.003 0.191,-0.044L0.191,0.039C0.191,0.064 0.192,0.081 0.193,0.088C0.197,0.109 0.207,0.119 0.222,0.119C0.227,0.119 0.234,0.118 0.243,0.116C0.252,0.114 0.259,0.113 0.264,0.113C0.285,0.113 0.296,0.124 0.296,0.146C0.296,0.168 0.282,0.179 0.254,0.179C0.244,0.179 0.229,0.178 0.209,0.175C0.194,0.173 0.172,0.172 0.143,0.172C0.127,0.172 0.114,0.173 0.103,0.174C0.076,0.177 0.059,0.179 0.05,0.179C0.039,0.179 0.029,0.175 0.021,0.169C0.013,0.162 0.009,0.153 0.009,0.144C0.009,0.123 0.02,0.112 0.043,0.112C0.047,0.112 0.053,0.113 0.062,0.115C0.073,0.118 0.082,0.119 0.087,0.119C0.1,0.119 0.108,0.113 0.111,0.1C0.114,0.087 0.115,0.05 0.116,-0.009L0.117,-0.395C0.116,-0.426 0.108,-0.441 0.091,-0.441C0.086,-0.441 0.079,-0.44 0.07,-0.438C0.06,-0.435 0.052,-0.434 0.047,-0.434C0.022,-0.434 0.01,-0.445 0.01,-0.467C0.01,-0.488 0.025,-0.499 0.054,-0.499C0.061,-0.499 0.069,-0.499 0.078,-0.498C0.095,-0.497 0.107,-0.496 0.115,-0.496C0.121,-0.496 0.13,-0.497 0.141,-0.498C0.152,-0.499 0.161,-0.499 0.166,-0.499C0.183,-0.499 0.191,-0.49 0.191,-0.471ZM0.206,-0.349C0.2,-0.323 0.197,-0.291 0.196,-0.254C0.196,-0.251 0.196,-0.246 0.195,-0.239L0.195,-0.225C0.195,-0.18 0.199,-0.148 0.206,-0.128C0.213,-0.107 0.228,-0.089 0.25,-0.073C0.271,-0.057 0.298,-0.049 0.33,-0.049C0.378,-0.049 0.415,-0.067 0.442,-0.102C0.468,-0.136 0.481,-0.186 0.481,-0.251C0.481,-0.384 0.434,-0.451 0.339,-0.451C0.307,-0.451 0.278,-0.441 0.254,-0.422C0.229,-0.403 0.213,-0.378 0.206,-0.349Z" style="fill-rule:nonzero;"/>
            </g>
            <g transform="matrix(139.124,-155.072,155.072,139.124,531.902,409.692)">
                <path d="M0.195,-0.418L0.196,-0.107C0.197,-0.073 0.206,-0.056 0.223,-0.056C0.227,-0.056 0.235,-0.058 0.248,-0.061C0.256,-0.062 0.261,-0.063 0.264,-0.063C0.286,-0.063 0.297,-0.052 0.297,-0.029C0.297,-0.007 0.283,0.004 0.256,0.004C0.245,0.004 0.228,0.003 0.205,-0C0.182,-0.003 0.164,-0.004 0.151,-0.004C0.14,-0.004 0.124,-0.003 0.103,-0C0.082,0.003 0.066,0.004 0.056,0.004L0.051,0.004C0.023,0.004 0.009,-0.008 0.009,-0.032C0.009,-0.053 0.02,-0.063 0.043,-0.063L0.05,-0.063C0.054,-0.062 0.057,-0.062 0.059,-0.062C0.076,-0.059 0.085,-0.058 0.088,-0.058C0.1,-0.058 0.108,-0.063 0.111,-0.074C0.114,-0.084 0.115,-0.111 0.116,-0.154L0.117,-0.224L0.12,-0.379L0.119,-0.557C0.118,-0.577 0.117,-0.59 0.116,-0.597C0.111,-0.612 0.102,-0.62 0.088,-0.62C0.086,-0.62 0.077,-0.619 0.062,-0.616C0.055,-0.615 0.049,-0.614 0.044,-0.614C0.021,-0.614 0.01,-0.625 0.01,-0.646C0.01,-0.668 0.023,-0.679 0.05,-0.679C0.057,-0.679 0.064,-0.679 0.069,-0.678L0.093,-0.675C0.104,-0.674 0.113,-0.673 0.12,-0.673C0.127,-0.673 0.137,-0.674 0.15,-0.677C0.163,-0.679 0.173,-0.68 0.18,-0.68C0.195,-0.68 0.203,-0.67 0.203,-0.651C0.203,-0.644 0.203,-0.639 0.202,-0.636C0.197,-0.585 0.195,-0.512 0.195,-0.418Z" style="fill-rule:nonzero;"/>
            </g>
            <g transform="matrix(155.489,-138.658,138.658,155.489,569.812,364.934)">
                <path d="M0.269,0.017C0.199,0.017 0.143,-0.007 0.101,-0.056C0.059,-0.104 0.038,-0.169 0.038,-0.25C0.038,-0.331 0.059,-0.396 0.102,-0.445C0.144,-0.493 0.201,-0.517 0.272,-0.517C0.345,-0.517 0.402,-0.493 0.444,-0.446C0.486,-0.399 0.507,-0.334 0.507,-0.253C0.507,-0.172 0.485,-0.106 0.442,-0.057C0.399,-0.008 0.341,0.017 0.269,0.017ZM0.274,-0.451C0.227,-0.451 0.191,-0.435 0.164,-0.402C0.137,-0.369 0.123,-0.323 0.12,-0.263L0.12,-0.25C0.12,-0.187 0.133,-0.138 0.16,-0.103C0.186,-0.067 0.223,-0.049 0.27,-0.049C0.319,-0.049 0.357,-0.067 0.385,-0.103C0.412,-0.138 0.426,-0.188 0.426,-0.251C0.426,-0.384 0.375,-0.451 0.274,-0.451Z" style="fill-rule:nonzero;"/>
            </g>
            <g transform="matrix(172.922,-116.193,116.193,172.922,649.558,293.634)">
                <path d="M0.19,-0.471L0.19,-0.444C0.225,-0.493 0.271,-0.517 0.329,-0.517C0.376,-0.517 0.413,-0.504 0.443,-0.478C0.471,-0.451 0.486,-0.417 0.486,-0.376C0.486,-0.347 0.479,-0.323 0.464,-0.305C0.449,-0.286 0.43,-0.277 0.406,-0.277C0.391,-0.277 0.378,-0.282 0.367,-0.291C0.356,-0.3 0.351,-0.312 0.351,-0.325C0.351,-0.336 0.355,-0.345 0.363,-0.354C0.371,-0.362 0.38,-0.366 0.391,-0.366C0.393,-0.366 0.397,-0.365 0.404,-0.363C0.408,-0.371 0.41,-0.378 0.41,-0.385C0.41,-0.404 0.402,-0.421 0.385,-0.434C0.368,-0.447 0.346,-0.454 0.321,-0.454C0.269,-0.454 0.234,-0.431 0.217,-0.384C0.206,-0.355 0.201,-0.312 0.201,-0.254L0.201,-0.188C0.201,-0.143 0.201,-0.118 0.202,-0.113C0.205,-0.075 0.216,-0.056 0.233,-0.056C0.242,-0.056 0.251,-0.057 0.26,-0.06C0.267,-0.062 0.274,-0.063 0.279,-0.063C0.3,-0.063 0.311,-0.052 0.311,-0.031C0.311,-0.008 0.297,0.004 0.27,0.004L0.266,0.004C0.256,0.004 0.241,0.003 0.221,0.001C0.2,-0.002 0.185,-0.003 0.175,-0.003C0.148,-0.003 0.127,-0.002 0.112,-0.001L0.056,0.004C0.029,0.004 0.015,-0.008 0.015,-0.031C0.015,-0.052 0.028,-0.062 0.053,-0.062C0.06,-0.062 0.065,-0.062 0.068,-0.061L0.083,-0.058C0.09,-0.057 0.094,-0.056 0.097,-0.056C0.114,-0.056 0.123,-0.071 0.124,-0.102L0.126,-0.153L0.123,-0.38C0.121,-0.419 0.111,-0.439 0.093,-0.439C0.088,-0.439 0.08,-0.438 0.071,-0.436C0.062,-0.434 0.054,-0.433 0.049,-0.433C0.027,-0.433 0.016,-0.444 0.016,-0.465C0.016,-0.488 0.03,-0.5 0.059,-0.5C0.066,-0.5 0.076,-0.499 0.089,-0.498C0.102,-0.496 0.112,-0.495 0.119,-0.495C0.124,-0.495 0.133,-0.496 0.145,-0.497C0.15,-0.498 0.157,-0.499 0.164,-0.499C0.181,-0.499 0.19,-0.49 0.19,-0.471Z" style="fill-rule:nonzero;"/>
            </g>
            <g transform="matrix(186.697,-92.4496,92.4496,186.697,728.137,239.842)">
                <path d="M0.493,-0.294C0.493,-0.269 0.491,-0.253 0.488,-0.248C0.485,-0.242 0.475,-0.239 0.459,-0.239L0.141,-0.239C0.132,-0.239 0.127,-0.238 0.124,-0.236C0.121,-0.233 0.12,-0.229 0.12,-0.224C0.12,-0.174 0.135,-0.132 0.165,-0.099C0.195,-0.066 0.232,-0.049 0.277,-0.049C0.306,-0.049 0.333,-0.057 0.358,-0.073C0.382,-0.089 0.398,-0.109 0.405,-0.134L0.414,-0.163C0.419,-0.179 0.43,-0.187 0.447,-0.187C0.472,-0.187 0.484,-0.174 0.484,-0.149C0.484,-0.106 0.462,-0.067 0.418,-0.034C0.374,0 0.324,0.017 0.268,0.017C0.198,0.017 0.142,-0.006 0.101,-0.054C0.06,-0.1 0.039,-0.164 0.039,-0.243C0.039,-0.324 0.061,-0.39 0.105,-0.441C0.149,-0.492 0.206,-0.517 0.277,-0.517C0.34,-0.517 0.391,-0.496 0.432,-0.454C0.473,-0.412 0.493,-0.359 0.493,-0.294ZM0.13,-0.32C0.13,-0.311 0.137,-0.306 0.152,-0.306L0.391,-0.306C0.405,-0.306 0.412,-0.311 0.412,-0.32C0.412,-0.355 0.399,-0.386 0.372,-0.412C0.345,-0.438 0.314,-0.451 0.278,-0.451C0.241,-0.451 0.207,-0.438 0.176,-0.411C0.145,-0.384 0.13,-0.353 0.13,-0.32Z" style="fill-rule:nonzero;"/>
            </g>
            <g transform="matrix(202.275,-49.8745,49.8745,202.275,865.137,175.632)">
                <path d="M0.263,-0.517C0.329,-0.517 0.378,-0.491 0.411,-0.44L0.411,-0.541C0.411,-0.568 0.41,-0.584 0.409,-0.59C0.406,-0.611 0.396,-0.621 0.381,-0.621C0.376,-0.621 0.368,-0.62 0.359,-0.618C0.349,-0.616 0.341,-0.615 0.336,-0.615C0.311,-0.615 0.299,-0.626 0.299,-0.647C0.299,-0.669 0.316,-0.68 0.349,-0.68C0.354,-0.68 0.364,-0.679 0.378,-0.678C0.399,-0.676 0.41,-0.675 0.411,-0.675C0.417,-0.675 0.426,-0.676 0.437,-0.677C0.448,-0.678 0.457,-0.679 0.463,-0.679C0.482,-0.679 0.491,-0.666 0.491,-0.639L0.491,-0.628C0.49,-0.626 0.49,-0.608 0.489,-0.575C0.489,-0.571 0.488,-0.545 0.486,-0.498C0.485,-0.465 0.484,-0.439 0.484,-0.422L0.484,-0.324L0.486,-0.157C0.487,-0.113 0.489,-0.086 0.492,-0.075C0.495,-0.064 0.503,-0.059 0.516,-0.059C0.525,-0.059 0.531,-0.06 0.536,-0.061C0.547,-0.062 0.554,-0.063 0.558,-0.063C0.583,-0.063 0.595,-0.052 0.595,-0.03C0.595,-0.007 0.58,0.004 0.55,0.004C0.543,0.004 0.533,0.003 0.52,0.002C0.506,-0 0.496,-0.001 0.489,-0.001C0.487,-0.001 0.479,-0 0.466,0.001C0.458,0.003 0.451,0.004 0.445,0.004C0.427,0.004 0.418,-0.008 0.418,-0.032L0.418,-0.037L0.419,-0.054C0.384,-0.007 0.332,0.017 0.265,0.017C0.197,0.017 0.142,-0.008 0.101,-0.057C0.06,-0.106 0.039,-0.171 0.039,-0.251C0.039,-0.332 0.059,-0.396 0.1,-0.445C0.141,-0.493 0.195,-0.517 0.263,-0.517ZM0.405,-0.164C0.408,-0.186 0.409,-0.214 0.409,-0.249C0.409,-0.294 0.407,-0.324 0.404,-0.34C0.398,-0.373 0.384,-0.399 0.361,-0.418C0.334,-0.44 0.304,-0.451 0.269,-0.451C0.222,-0.451 0.186,-0.433 0.16,-0.398C0.133,-0.363 0.12,-0.314 0.12,-0.253C0.12,-0.19 0.134,-0.14 0.161,-0.104C0.188,-0.067 0.226,-0.049 0.273,-0.049C0.309,-0.049 0.339,-0.059 0.363,-0.081C0.387,-0.101 0.401,-0.129 0.405,-0.164Z" style="fill-rule:nonzero;"/>
            </g>
            <g transform="matrix(207.507,-18.5416,18.5416,207.507,978.816,146.719)">
                <path d="M0.469,0.013C0.414,0.013 0.381,-0.011 0.368,-0.058C0.334,-0.008 0.281,0.017 0.208,0.017C0.154,0.017 0.111,0.004 0.079,-0.023C0.046,-0.05 0.03,-0.085 0.03,-0.13C0.03,-0.185 0.054,-0.226 0.101,-0.252C0.119,-0.262 0.134,-0.269 0.148,-0.272C0.161,-0.275 0.187,-0.278 0.226,-0.283C0.282,-0.289 0.319,-0.297 0.336,-0.308C0.353,-0.319 0.361,-0.338 0.361,-0.367C0.361,-0.394 0.352,-0.416 0.333,-0.432C0.314,-0.447 0.287,-0.455 0.253,-0.455C0.223,-0.455 0.195,-0.447 0.169,-0.43C0.159,-0.423 0.154,-0.416 0.154,-0.409C0.154,-0.406 0.157,-0.403 0.163,-0.399C0.172,-0.392 0.177,-0.381 0.177,-0.365C0.177,-0.352 0.172,-0.341 0.163,-0.332C0.153,-0.323 0.141,-0.319 0.126,-0.319C0.109,-0.319 0.094,-0.325 0.083,-0.337C0.071,-0.349 0.065,-0.364 0.065,-0.381C0.065,-0.418 0.084,-0.45 0.121,-0.477C0.158,-0.504 0.202,-0.517 0.255,-0.517C0.376,-0.517 0.437,-0.459 0.437,-0.342L0.437,-0.14C0.437,-0.108 0.438,-0.089 0.439,-0.083C0.443,-0.06 0.454,-0.048 0.473,-0.048C0.496,-0.048 0.508,-0.069 0.508,-0.112L0.508,-0.161C0.508,-0.182 0.518,-0.193 0.539,-0.193C0.561,-0.193 0.572,-0.177 0.572,-0.145L0.572,-0.14L0.571,-0.083C0.57,-0.019 0.536,0.013 0.469,0.013ZM0.358,-0.186L0.359,-0.257C0.344,-0.244 0.329,-0.234 0.313,-0.229C0.296,-0.224 0.267,-0.219 0.225,-0.215C0.149,-0.208 0.111,-0.18 0.111,-0.131C0.111,-0.106 0.12,-0.086 0.139,-0.071C0.157,-0.056 0.182,-0.049 0.213,-0.049C0.258,-0.049 0.293,-0.061 0.319,-0.086C0.344,-0.11 0.357,-0.143 0.358,-0.186Z" style="fill-rule:nonzero;"/>
            </g>
            <g transform="matrix(208.244,6.08401,-6.08401,208.244,1089.82,137.27)">
                <path d="M0.314,-0.138L0.316,-0.202C0.317,-0.229 0.329,-0.243 0.352,-0.243C0.375,-0.243 0.387,-0.228 0.387,-0.197C0.387,-0.124 0.378,-0.074 0.359,-0.045C0.334,-0.006 0.292,0.013 0.234,0.013C0.181,0.013 0.143,-0.004 0.12,-0.038C0.103,-0.063 0.095,-0.105 0.095,-0.164L0.095,-0.404C0.095,-0.418 0.089,-0.425 0.076,-0.425L0.044,-0.425C0.033,-0.425 0.025,-0.428 0.018,-0.436C0.011,-0.443 0.007,-0.451 0.007,-0.461C0.007,-0.47 0.011,-0.479 0.018,-0.486C0.025,-0.493 0.032,-0.497 0.041,-0.497L0.08,-0.497C0.091,-0.497 0.097,-0.503 0.097,-0.516L0.097,-0.619C0.097,-0.644 0.11,-0.657 0.136,-0.657C0.16,-0.657 0.172,-0.644 0.172,-0.619L0.172,-0.512C0.172,-0.502 0.178,-0.497 0.19,-0.497L0.299,-0.497C0.324,-0.497 0.337,-0.485 0.337,-0.462C0.337,-0.437 0.323,-0.425 0.296,-0.425L0.186,-0.425C0.177,-0.425 0.172,-0.418 0.172,-0.404L0.172,-0.158C0.172,-0.088 0.195,-0.053 0.241,-0.053C0.288,-0.053 0.312,-0.081 0.314,-0.138Z" style="fill-rule:nonzero;"/>
            </g>
            <g transform="matrix(205.679,33.1508,-33.1508,205.679,1166.46,137.714)">
                <path d="M0.469,0.013C0.414,0.013 0.381,-0.011 0.368,-0.058C0.334,-0.008 0.281,0.017 0.208,0.017C0.154,0.017 0.111,0.004 0.079,-0.023C0.046,-0.05 0.03,-0.085 0.03,-0.13C0.03,-0.185 0.054,-0.226 0.101,-0.252C0.119,-0.262 0.134,-0.269 0.148,-0.272C0.161,-0.275 0.187,-0.278 0.226,-0.283C0.282,-0.289 0.319,-0.297 0.336,-0.308C0.353,-0.319 0.361,-0.338 0.361,-0.367C0.361,-0.394 0.352,-0.416 0.333,-0.432C0.314,-0.447 0.287,-0.455 0.253,-0.455C0.223,-0.455 0.195,-0.447 0.169,-0.43C0.159,-0.423 0.154,-0.416 0.154,-0.409C0.154,-0.406 0.157,-0.403 0.163,-0.399C0.172,-0.392 0.177,-0.381 0.177,-0.365C0.177,-0.352 0.172,-0.341 0.163,-0.332C0.153,-0.323 0.141,-0.319 0.126,-0.319C0.109,-0.319 0.094,-0.325 0.083,-0.337C0.071,-0.349 0.065,-0.364 0.065,-0.381C0.065,-0.418 0.084,-0.45 0.121,-0.477C0.158,-0.504 0.202,-0.517 0.255,-0.517C0.376,-0.517 0.437,-0.459 0.437,-0.342L0.437,-0.14C0.437,-0.108 0.438,-0.089 0.439,-0.083C0.443,-0.06 0.454,-0.048 0.473,-0.048C0.496,-0.048 0.508,-0.069 0.508,-0.112L0.508,-0.161C0.508,-0.182 0.518,-0.193 0.539,-0.193C0.561,-0.193 0.572,-0.177 0.572,-0.145L0.572,-0.14L0.571,-0.083C0.57,-0.019 0.536,0.013 0.469,0.013ZM0.358,-0.186L0.359,-0.257C0.344,-0.244 0.329,-0.234 0.313,-0.229C0.296,-0.224 0.267,-0.219 0.225,-0.215C0.149,-0.208 0.111,-0.18 0.111,-0.131C0.111,-0.106 0.12,-0.086 0.139,-0.071C0.157,-0.056 0.182,-0.049 0.213,-0.049C0.258,-0.049 0.293,-0.061 0.319,-0.086C0.344,-0.11 0.357,-0.143 0.358,-0.186Z" style="fill-rule:nonzero;"/>
            </g>
            <g transform="matrix(201.143,54.2594,-54.2594,201.143,1276.82,156.63)">
                <path d="M0.149,0.034C0.149,0.023 0.143,0.017 0.132,0.017L0.112,0.017C0.097,0.017 0.084,0.011 0.074,-0C0.063,-0.011 0.058,-0.025 0.058,-0.042C0.058,-0.061 0.065,-0.078 0.078,-0.091C0.091,-0.103 0.108,-0.11 0.128,-0.11C0.152,-0.11 0.171,-0.101 0.186,-0.082C0.201,-0.063 0.208,-0.039 0.208,-0.009C0.208,0.042 0.188,0.094 0.149,0.148C0.132,0.171 0.117,0.183 0.105,0.183C0.092,0.183 0.085,0.176 0.085,0.163C0.085,0.158 0.088,0.152 0.093,0.145C0.13,0.096 0.149,0.059 0.149,0.034Z" style="fill-rule:nonzero;"/>
            </g>
            <g transform="matrix(204.29,40.8465,-40.8465,204.29,876.08,1696.07)">
                <path d="M0.263,-0.517C0.329,-0.517 0.378,-0.491 0.411,-0.44L0.411,-0.541C0.411,-0.568 0.41,-0.584 0.409,-0.59C0.406,-0.611 0.396,-0.621 0.381,-0.621C0.376,-0.621 0.368,-0.62 0.359,-0.618C0.349,-0.616 0.341,-0.615 0.336,-0.615C0.311,-0.615 0.299,-0.626 0.299,-0.647C0.299,-0.669 0.316,-0.68 0.349,-0.68C0.354,-0.68 0.364,-0.679 0.378,-0.678C0.399,-0.676 0.41,-0.675 0.411,-0.675C0.417,-0.675 0.426,-0.676 0.437,-0.677C0.448,-0.678 0.457,-0.679 0.463,-0.679C0.482,-0.679 0.491,-0.666 0.491,-0.639L0.491,-0.628C0.49,-0.626 0.49,-0.608 0.489,-0.575C0.489,-0.571 0.488,-0.545 0.486,-0.498C0.485,-0.465 0.484,-0.439 0.484,-0.422L0.484,-0.324L0.486,-0.157C0.487,-0.113 0.489,-0.086 0.492,-0.075C0.495,-0.064 0.503,-0.059 0.516,-0.059C0.525,-0.059 0.531,-0.06 0.536,-0.061C0.547,-0.062 0.554,-0.063 0.558,-0.063C0.583,-0.063 0.595,-0.052 0.595,-0.03C0.595,-0.007 0.58,0.004 0.55,0.004C0.543,0.004 0.533,0.003 0.52,0.002C0.506,-0 0.496,-0.001 0.489,-0.001C0.487,-0.001 0.479,-0 0.466,0.001C0.458,0.003 0.451,0.004 0.445,0.004C0.427,0.004 0.418,-0.008 0.418,-0.032L0.418,-0.037L0.419,-0.054C0.384,-0.007 0.332,0.017 0.265,0.017C0.197,0.017 0.142,-0.008 0.101,-0.057C0.06,-0.106 0.039,-0.171 0.039,-0.251C0.039,-0.332 0.059,-0.396 0.1,-0.445C0.141,-0.493 0.195,-0.517 0.263,-0.517ZM0.405,-0.164C0.408,-0.186 0.409,-0.214 0.409,-0.249C0.409,-0.294 0.407,-0.324 0.404,-0.34C0.398,-0.373 0.384,-0.399 0.361,-0.418C0.334,-0.44 0.304,-0.451 0.269,-0.451C0.222,-0.451 0.186,-0.433 0.16,-0.398C0.133,-0.363 0.12,-0.314 0.12,-0.253C0.12,-0.19 0.134,-0.14 0.161,-0.104C0.188,-0.067 0.226,-0.049 0.273,-0.049C0.309,-0.049 0.339,-0.059 0.363,-0.081C0.387,-0.101 0.401,-0.129 0.405,-0.164Z" style="fill-rule:nonzero;"/>
            </g>
            <g transform="matrix(208.042,11.0102,-11.0102,208.042,1006.26,1721.36)">
                <path d="M0.269,0.017C0.199,0.017 0.143,-0.007 0.101,-0.056C0.059,-0.104 0.038,-0.169 0.038,-0.25C0.038,-0.331 0.059,-0.396 0.102,-0.445C0.144,-0.493 0.201,-0.517 0.272,-0.517C0.345,-0.517 0.402,-0.493 0.444,-0.446C0.486,-0.399 0.507,-0.334 0.507,-0.253C0.507,-0.172 0.485,-0.106 0.442,-0.057C0.399,-0.008 0.341,0.017 0.269,0.017ZM0.274,-0.451C0.227,-0.451 0.191,-0.435 0.164,-0.402C0.137,-0.369 0.123,-0.323 0.12,-0.263L0.12,-0.25C0.12,-0.187 0.133,-0.138 0.16,-0.103C0.186,-0.067 0.223,-0.049 0.27,-0.049C0.319,-0.049 0.357,-0.067 0.385,-0.103C0.412,-0.138 0.426,-0.188 0.426,-0.251C0.426,-0.384 0.375,-0.451 0.274,-0.451Z" style="fill-rule:nonzero;"/>
            </g>
            <g transform="matrix(206.741,-25.709,25.709,206.741,1181.28,1723.17)">
                <path d="M0.201,-0.29L0.201,-0.16C0.201,-0.127 0.201,-0.107 0.202,-0.101C0.205,-0.071 0.214,-0.056 0.229,-0.056C0.232,-0.056 0.241,-0.058 0.254,-0.061C0.257,-0.062 0.262,-0.063 0.269,-0.063C0.294,-0.063 0.307,-0.052 0.307,-0.03C0.307,-0.021 0.303,-0.013 0.295,-0.006C0.286,0.001 0.276,0.004 0.263,0.004C0.252,0.004 0.236,0.003 0.215,-0.001C0.193,-0.004 0.177,-0.005 0.166,-0.005C0.149,-0.005 0.129,-0.004 0.108,-0.001C0.082,0.002 0.065,0.004 0.056,0.004C0.029,0.004 0.016,-0.007 0.016,-0.03C0.016,-0.052 0.027,-0.063 0.05,-0.063C0.055,-0.063 0.063,-0.062 0.074,-0.06C0.084,-0.058 0.092,-0.057 0.097,-0.057C0.113,-0.057 0.123,-0.078 0.126,-0.121L0.126,-0.377C0.123,-0.419 0.113,-0.44 0.096,-0.44C0.091,-0.44 0.083,-0.439 0.074,-0.437C0.064,-0.434 0.057,-0.433 0.052,-0.433C0.028,-0.433 0.016,-0.444 0.016,-0.465C0.016,-0.488 0.031,-0.499 0.06,-0.499C0.073,-0.499 0.082,-0.499 0.087,-0.498C0.108,-0.495 0.122,-0.494 0.128,-0.494C0.133,-0.494 0.141,-0.495 0.153,-0.497C0.164,-0.498 0.172,-0.499 0.177,-0.499C0.196,-0.499 0.206,-0.486 0.206,-0.46C0.206,-0.457 0.204,-0.439 0.204,-0.436C0.203,-0.431 0.203,-0.41 0.202,-0.374C0.201,-0.347 0.201,-0.319 0.201,-0.29ZM0.149,-0.552C0.134,-0.552 0.121,-0.558 0.11,-0.569C0.098,-0.58 0.093,-0.593 0.093,-0.608C0.093,-0.623 0.098,-0.636 0.11,-0.647C0.121,-0.658 0.134,-0.663 0.149,-0.663C0.164,-0.663 0.178,-0.658 0.189,-0.647C0.2,-0.636 0.205,-0.623 0.205,-0.608C0.205,-0.593 0.2,-0.58 0.189,-0.569C0.178,-0.558 0.164,-0.552 0.149,-0.552Z" style="fill-rule:nonzero;"/>
            </g>
            <g transform="matrix(203.576,-44.2669,44.2669,203.576,1250.2,1714.84)">
                <path d="M0.314,-0.138L0.316,-0.202C0.317,-0.229 0.329,-0.243 0.352,-0.243C0.375,-0.243 0.387,-0.228 0.387,-0.197C0.387,-0.124 0.378,-0.074 0.359,-0.045C0.334,-0.006 0.292,0.013 0.234,0.013C0.181,0.013 0.143,-0.004 0.12,-0.038C0.103,-0.063 0.095,-0.105 0.095,-0.164L0.095,-0.404C0.095,-0.418 0.089,-0.425 0.076,-0.425L0.044,-0.425C0.033,-0.425 0.025,-0.428 0.018,-0.436C0.011,-0.443 0.007,-0.451 0.007,-0.461C0.007,-0.47 0.011,-0.479 0.018,-0.486C0.025,-0.493 0.032,-0.497 0.041,-0.497L0.08,-0.497C0.091,-0.497 0.097,-0.503 0.097,-0.516L0.097,-0.619C0.097,-0.644 0.11,-0.657 0.136,-0.657C0.16,-0.657 0.172,-0.644 0.172,-0.619L0.172,-0.512C0.172,-0.502 0.178,-0.497 0.19,-0.497L0.299,-0.497C0.324,-0.497 0.337,-0.485 0.337,-0.462C0.337,-0.437 0.323,-0.425 0.296,-0.425L0.186,-0.425C0.177,-0.425 0.172,-0.418 0.172,-0.404L0.172,-0.158C0.172,-0.088 0.195,-0.053 0.241,-0.053C0.288,-0.053 0.312,-0.081 0.314,-0.138Z" style="fill-rule:nonzero;"/>
            </g>
            <g transform="matrix(192.006,-80.8475,80.8475,192.006,1390.89,1679.33)">
                <path d="M0.25,-0.517C0.295,-0.517 0.332,-0.505 0.362,-0.482L0.362,-0.486C0.362,-0.511 0.373,-0.523 0.394,-0.523C0.416,-0.523 0.427,-0.512 0.427,-0.491C0.427,-0.487 0.426,-0.477 0.425,-0.461C0.422,-0.448 0.421,-0.434 0.421,-0.421C0.421,-0.413 0.422,-0.401 0.425,-0.386C0.427,-0.371 0.428,-0.359 0.428,-0.351C0.428,-0.326 0.417,-0.313 0.395,-0.313C0.374,-0.313 0.363,-0.324 0.362,-0.345L0.361,-0.378C0.36,-0.398 0.349,-0.415 0.327,-0.43C0.304,-0.444 0.278,-0.451 0.248,-0.451C0.217,-0.451 0.192,-0.443 0.171,-0.428C0.15,-0.412 0.14,-0.392 0.14,-0.369C0.14,-0.326 0.169,-0.301 0.228,-0.293L0.286,-0.285C0.399,-0.27 0.456,-0.223 0.456,-0.144C0.456,-0.096 0.438,-0.057 0.401,-0.028C0.364,0.002 0.316,0.017 0.257,0.017C0.202,0.017 0.154,0.001 0.113,-0.03C0.114,-0.023 0.114,-0.017 0.114,-0.011C0.114,0.013 0.103,0.025 0.08,0.025C0.055,0.025 0.043,0.011 0.043,-0.016C0.043,-0.011 0.045,-0.029 0.049,-0.068C0.05,-0.077 0.051,-0.087 0.051,-0.096C0.051,-0.112 0.05,-0.127 0.047,-0.141C0.044,-0.155 0.043,-0.166 0.043,-0.174C0.043,-0.197 0.054,-0.209 0.075,-0.209C0.089,-0.209 0.098,-0.206 0.102,-0.199C0.105,-0.192 0.107,-0.175 0.108,-0.146C0.109,-0.117 0.124,-0.094 0.153,-0.076C0.182,-0.058 0.22,-0.049 0.265,-0.049C0.298,-0.049 0.325,-0.057 0.346,-0.074C0.367,-0.091 0.378,-0.112 0.378,-0.137C0.378,-0.182 0.342,-0.209 0.27,-0.216C0.201,-0.223 0.149,-0.237 0.113,-0.257C0.077,-0.276 0.059,-0.311 0.059,-0.36C0.059,-0.407 0.077,-0.444 0.112,-0.474C0.147,-0.503 0.193,-0.517 0.25,-0.517Z" style="fill-rule:nonzero;"/>
            </g>
            <g transform="matrix(175.744,-111.879,111.879,175.744,1494.92,1637.64)">
                <path d="M0.179,-0.36L0.252,-0.056L0.33,-0.408C0.338,-0.445 0.347,-0.47 0.357,-0.483C0.366,-0.495 0.381,-0.501 0.401,-0.501C0.422,-0.501 0.437,-0.495 0.447,-0.482C0.456,-0.469 0.465,-0.445 0.473,-0.408L0.548,-0.056L0.622,-0.36C0.627,-0.379 0.629,-0.396 0.629,-0.41L0.629,-0.412C0.629,-0.43 0.621,-0.439 0.606,-0.439C0.6,-0.439 0.591,-0.438 0.58,-0.436C0.569,-0.433 0.56,-0.432 0.554,-0.432C0.529,-0.432 0.517,-0.443 0.517,-0.465C0.517,-0.488 0.533,-0.5 0.566,-0.5C0.571,-0.5 0.576,-0.5 0.581,-0.499L0.622,-0.494C0.633,-0.493 0.649,-0.492 0.672,-0.492C0.69,-0.492 0.707,-0.493 0.724,-0.495L0.757,-0.499C0.76,-0.5 0.763,-0.5 0.768,-0.5C0.797,-0.5 0.811,-0.489 0.811,-0.466C0.811,-0.444 0.8,-0.433 0.778,-0.433C0.771,-0.433 0.765,-0.434 0.761,-0.435C0.75,-0.436 0.744,-0.437 0.743,-0.437C0.725,-0.437 0.706,-0.4 0.687,-0.326L0.619,-0.069C0.611,-0.038 0.602,-0.016 0.591,-0.004C0.58,0.009 0.566,0.015 0.547,0.015C0.512,0.015 0.488,-0.013 0.476,-0.069L0.401,-0.425L0.323,-0.075C0.316,-0.042 0.306,-0.018 0.295,-0.005C0.284,0.009 0.268,0.016 0.249,0.016C0.218,0.016 0.197,-0.005 0.186,-0.046L0.09,-0.406C0.084,-0.427 0.075,-0.438 0.062,-0.438C0.058,-0.438 0.052,-0.437 0.044,-0.435C0.033,-0.434 0.026,-0.433 0.022,-0.433C0,-0.433 -0.011,-0.444 -0.011,-0.465C-0.011,-0.488 0.004,-0.5 0.034,-0.5C0.039,-0.5 0.043,-0.5 0.045,-0.499L0.088,-0.493C0.097,-0.492 0.11,-0.491 0.125,-0.491C0.144,-0.491 0.165,-0.492 0.189,-0.495C0.219,-0.498 0.236,-0.5 0.241,-0.5C0.27,-0.5 0.285,-0.489 0.285,-0.466C0.285,-0.444 0.273,-0.433 0.248,-0.433C0.243,-0.433 0.235,-0.434 0.223,-0.435C0.214,-0.438 0.206,-0.439 0.198,-0.439C0.181,-0.439 0.172,-0.429 0.172,-0.409C0.172,-0.396 0.174,-0.379 0.179,-0.36Z" style="fill-rule:nonzero;"/>
            </g>
            <g transform="matrix(157.537,-136.327,136.327,157.537,1639.85,1540.37)">
                <path d="M0.201,-0.29L0.201,-0.16C0.201,-0.127 0.201,-0.107 0.202,-0.101C0.205,-0.071 0.214,-0.056 0.229,-0.056C0.232,-0.056 0.241,-0.058 0.254,-0.061C0.257,-0.062 0.262,-0.063 0.269,-0.063C0.294,-0.063 0.307,-0.052 0.307,-0.03C0.307,-0.021 0.303,-0.013 0.295,-0.006C0.286,0.001 0.276,0.004 0.263,0.004C0.252,0.004 0.236,0.003 0.215,-0.001C0.193,-0.004 0.177,-0.005 0.166,-0.005C0.149,-0.005 0.129,-0.004 0.108,-0.001C0.082,0.002 0.065,0.004 0.056,0.004C0.029,0.004 0.016,-0.007 0.016,-0.03C0.016,-0.052 0.027,-0.063 0.05,-0.063C0.055,-0.063 0.063,-0.062 0.074,-0.06C0.084,-0.058 0.092,-0.057 0.097,-0.057C0.113,-0.057 0.123,-0.078 0.126,-0.121L0.126,-0.377C0.123,-0.419 0.113,-0.44 0.096,-0.44C0.091,-0.44 0.083,-0.439 0.074,-0.437C0.064,-0.434 0.057,-0.433 0.052,-0.433C0.028,-0.433 0.016,-0.444 0.016,-0.465C0.016,-0.488 0.031,-0.499 0.06,-0.499C0.073,-0.499 0.082,-0.499 0.087,-0.498C0.108,-0.495 0.122,-0.494 0.128,-0.494C0.133,-0.494 0.141,-0.495 0.153,-0.497C0.164,-0.498 0.172,-0.499 0.177,-0.499C0.196,-0.499 0.206,-0.486 0.206,-0.46C0.206,-0.457 0.204,-0.439 0.204,-0.436C0.203,-0.431 0.203,-0.41 0.202,-0.374C0.201,-0.347 0.201,-0.319 0.201,-0.29ZM0.149,-0.552C0.134,-0.552 0.121,-0.558 0.11,-0.569C0.098,-0.58 0.093,-0.593 0.093,-0.608C0.093,-0.623 0.098,-0.636 0.11,-0.647C0.121,-0.658 0.134,-0.663 0.149,-0.663C0.164,-0.663 0.178,-0.658 0.189,-0.647C0.2,-0.636 0.205,-0.623 0.205,-0.608C0.205,-0.593 0.2,-0.58 0.189,-0.569C0.178,-0.558 0.164,-0.552 0.149,-0.552Z" style="fill-rule:nonzero;"/>
            </g>
            <g transform="matrix(143.626,-150.912,150.912,143.626,1692.9,1495.15)">
                <path d="M0.335,-0.591C0.335,-0.6 0.338,-0.609 0.345,-0.616C0.334,-0.627 0.317,-0.632 0.295,-0.632C0.266,-0.632 0.244,-0.623 0.228,-0.605C0.211,-0.586 0.203,-0.561 0.203,-0.528L0.203,-0.51C0.203,-0.501 0.207,-0.497 0.216,-0.497L0.294,-0.497C0.316,-0.497 0.327,-0.485 0.327,-0.461C0.327,-0.437 0.316,-0.425 0.294,-0.425L0.22,-0.425C0.209,-0.425 0.203,-0.419 0.203,-0.407L0.203,-0.127C0.203,-0.102 0.203,-0.088 0.204,-0.084C0.207,-0.066 0.216,-0.057 0.229,-0.057C0.232,-0.057 0.241,-0.059 0.254,-0.062C0.263,-0.063 0.27,-0.064 0.274,-0.064C0.297,-0.064 0.308,-0.053 0.308,-0.031C0.308,-0.008 0.294,0.004 0.267,0.004C0.256,0.004 0.239,0.003 0.216,-0C0.193,-0.003 0.175,-0.004 0.164,-0.004C0.144,-0.004 0.126,-0.003 0.11,-0.001C0.084,0.002 0.067,0.004 0.06,0.004C0.031,0.004 0.017,-0.008 0.017,-0.031C0.017,-0.04 0.021,-0.047 0.028,-0.054C0.034,-0.061 0.043,-0.064 0.052,-0.064C0.059,-0.064 0.066,-0.063 0.075,-0.061C0.083,-0.058 0.09,-0.057 0.097,-0.057C0.11,-0.057 0.118,-0.065 0.121,-0.081C0.124,-0.097 0.126,-0.136 0.127,-0.197L0.128,-0.407C0.128,-0.419 0.122,-0.425 0.11,-0.425L0.06,-0.425C0.037,-0.425 0.025,-0.437 0.025,-0.462C0.025,-0.485 0.037,-0.497 0.061,-0.497L0.118,-0.497C0.127,-0.497 0.131,-0.501 0.131,-0.51L0.131,-0.528C0.131,-0.581 0.145,-0.621 0.173,-0.649C0.201,-0.677 0.241,-0.691 0.292,-0.691C0.334,-0.691 0.368,-0.683 0.393,-0.666C0.418,-0.649 0.431,-0.626 0.431,-0.597C0.431,-0.582 0.426,-0.571 0.417,-0.562C0.408,-0.553 0.396,-0.548 0.382,-0.548C0.369,-0.548 0.358,-0.552 0.349,-0.561C0.339,-0.569 0.335,-0.579 0.335,-0.591Z" style="fill-rule:nonzero;"/>
            </g>
            <g transform="matrix(130.657,-162.27,162.27,130.657,1745.81,1440.24)">
                <path d="M0.314,-0.138L0.316,-0.202C0.317,-0.229 0.329,-0.243 0.352,-0.243C0.375,-0.243 0.387,-0.228 0.387,-0.197C0.387,-0.124 0.378,-0.074 0.359,-0.045C0.334,-0.006 0.292,0.013 0.234,0.013C0.181,0.013 0.143,-0.004 0.12,-0.038C0.103,-0.063 0.095,-0.105 0.095,-0.164L0.095,-0.404C0.095,-0.418 0.089,-0.425 0.076,-0.425L0.044,-0.425C0.033,-0.425 0.025,-0.428 0.018,-0.436C0.011,-0.443 0.007,-0.451 0.007,-0.461C0.007,-0.47 0.011,-0.479 0.018,-0.486C0.025,-0.493 0.032,-0.497 0.041,-0.497L0.08,-0.497C0.091,-0.497 0.097,-0.503 0.097,-0.516L0.097,-0.619C0.097,-0.644 0.11,-0.657 0.136,-0.657C0.16,-0.657 0.172,-0.644 0.172,-0.619L0.172,-0.512C0.172,-0.502 0.178,-0.497 0.19,-0.497L0.299,-0.497C0.324,-0.497 0.337,-0.485 0.337,-0.462C0.337,-0.437 0.323,-0.425 0.296,-0.425L0.186,-0.425C0.177,-0.425 0.172,-0.418 0.172,-0.404L0.172,-0.158C0.172,-0.088 0.195,-0.053 0.241,-0.053C0.288,-0.053 0.312,-0.081 0.314,-0.138Z" style="fill-rule:nonzero;"/>
            </g>
            <g transform="matrix(115.035,-173.694,173.694,115.035,1800.54,1371.14)">
                <path d="M0.195,-0.418L0.196,-0.107C0.197,-0.073 0.206,-0.056 0.223,-0.056C0.227,-0.056 0.235,-0.058 0.248,-0.061C0.256,-0.062 0.261,-0.063 0.264,-0.063C0.286,-0.063 0.297,-0.052 0.297,-0.029C0.297,-0.007 0.283,0.004 0.256,0.004C0.245,0.004 0.228,0.003 0.205,-0C0.182,-0.003 0.164,-0.004 0.151,-0.004C0.14,-0.004 0.124,-0.003 0.103,-0C0.082,0.003 0.066,0.004 0.056,0.004L0.051,0.004C0.023,0.004 0.009,-0.008 0.009,-0.032C0.009,-0.053 0.02,-0.063 0.043,-0.063L0.05,-0.063C0.054,-0.062 0.057,-0.062 0.059,-0.062C0.076,-0.059 0.085,-0.058 0.088,-0.058C0.1,-0.058 0.108,-0.063 0.111,-0.074C0.114,-0.084 0.115,-0.111 0.116,-0.154L0.117,-0.224L0.12,-0.379L0.119,-0.557C0.118,-0.577 0.117,-0.59 0.116,-0.597C0.111,-0.612 0.102,-0.62 0.088,-0.62C0.086,-0.62 0.077,-0.619 0.062,-0.616C0.055,-0.615 0.049,-0.614 0.044,-0.614C0.021,-0.614 0.01,-0.625 0.01,-0.646C0.01,-0.668 0.023,-0.679 0.05,-0.679C0.057,-0.679 0.064,-0.679 0.069,-0.678L0.093,-0.675C0.104,-0.674 0.113,-0.673 0.12,-0.673C0.127,-0.673 0.137,-0.674 0.15,-0.677C0.163,-0.679 0.173,-0.68 0.18,-0.68C0.195,-0.68 0.203,-0.67 0.203,-0.651C0.203,-0.644 0.203,-0.639 0.202,-0.636C0.197,-0.585 0.195,-0.512 0.195,-0.418Z" style="fill-rule:nonzero;"/>
            </g>
            <g transform="matrix(93.7048,-186.07,186.07,93.7048,1840.8,1312.75)">
                <path d="M0.196,-0.404L0.311,-0.066L0.433,-0.399C0.436,-0.408 0.438,-0.416 0.438,-0.421C0.438,-0.432 0.43,-0.438 0.415,-0.438C0.407,-0.438 0.401,-0.437 0.396,-0.436C0.385,-0.435 0.378,-0.434 0.375,-0.434C0.353,-0.434 0.342,-0.445 0.342,-0.466C0.342,-0.489 0.356,-0.5 0.385,-0.5C0.389,-0.5 0.396,-0.499 0.405,-0.498L0.441,-0.493C0.45,-0.492 0.46,-0.491 0.471,-0.491C0.482,-0.491 0.499,-0.492 0.521,-0.495C0.543,-0.498 0.56,-0.499 0.571,-0.499C0.6,-0.499 0.614,-0.488 0.614,-0.466C0.614,-0.445 0.603,-0.434 0.581,-0.434C0.574,-0.434 0.569,-0.435 0.566,-0.436C0.557,-0.438 0.551,-0.439 0.548,-0.439C0.535,-0.439 0.522,-0.422 0.509,-0.388L0.373,-0.048C0.343,0.027 0.315,0.082 0.288,0.116C0.243,0.174 0.186,0.203 0.118,0.203C0.077,0.203 0.043,0.193 0.016,0.172C-0.012,0.151 -0.026,0.126 -0.026,0.097C-0.026,0.076 -0.02,0.059 -0.008,0.047C0.004,0.034 0.02,0.027 0.039,0.027C0.054,0.027 0.067,0.032 0.077,0.041C0.087,0.049 0.092,0.061 0.092,0.074C0.092,0.095 0.082,0.109 0.063,0.115C0.073,0.13 0.092,0.137 0.12,0.137C0.155,0.137 0.187,0.124 0.216,0.098C0.244,0.071 0.258,0.042 0.258,0.009C0.258,-0.008 0.249,-0.039 0.231,-0.084L0.121,-0.362C0.121,-0.362 0.117,-0.373 0.109,-0.394C0.098,-0.424 0.085,-0.439 0.07,-0.439C0.066,-0.439 0.059,-0.438 0.049,-0.436C0.038,-0.434 0.031,-0.433 0.028,-0.433C0.005,-0.433 -0.007,-0.444 -0.007,-0.465C-0.007,-0.488 0.008,-0.499 0.039,-0.499C0.049,-0.499 0.057,-0.499 0.062,-0.498L0.102,-0.493L0.11,-0.493C0.115,-0.492 0.119,-0.492 0.122,-0.492C0.146,-0.492 0.172,-0.493 0.199,-0.496C0.22,-0.498 0.233,-0.499 0.24,-0.499C0.268,-0.499 0.282,-0.488 0.282,-0.466C0.282,-0.444 0.269,-0.433 0.244,-0.433C0.24,-0.433 0.234,-0.434 0.225,-0.436C0.216,-0.437 0.21,-0.438 0.206,-0.438C0.197,-0.438 0.192,-0.433 0.192,-0.424C0.192,-0.419 0.193,-0.412 0.196,-0.404Z" style="fill-rule:nonzero;"/>
            </g>
            <g transform="matrix(67.4621,-197.108,197.108,67.4621,1898.7,1193.59)">
                <path d="M0.209,0.017C0.192,0.017 0.177,0.011 0.165,-0.002C0.153,-0.014 0.147,-0.029 0.147,-0.046C0.147,-0.063 0.153,-0.078 0.165,-0.091C0.177,-0.103 0.192,-0.109 0.209,-0.109C0.226,-0.109 0.241,-0.103 0.254,-0.091C0.266,-0.078 0.272,-0.063 0.272,-0.046C0.272,-0.029 0.266,-0.014 0.254,-0.002C0.241,0.011 0.226,0.017 0.209,0.017ZM0.174,-0.413L0.172,-0.523C0.172,-0.55 0.171,-0.581 0.17,-0.616C0.169,-0.621 0.169,-0.628 0.169,-0.635C0.169,-0.671 0.183,-0.689 0.211,-0.689C0.24,-0.689 0.254,-0.67 0.254,-0.631C0.254,-0.624 0.254,-0.617 0.253,-0.611C0.252,-0.608 0.251,-0.578 0.25,-0.523L0.247,-0.415L0.247,-0.227C0.247,-0.204 0.247,-0.189 0.246,-0.184C0.243,-0.165 0.236,-0.155 0.225,-0.153C0.221,-0.152 0.216,-0.152 0.21,-0.152C0.186,-0.152 0.174,-0.169 0.174,-0.202L0.174,-0.413Z" style="fill-rule:nonzero;"/>
            </g>
        </g>
    </g>
</svg>
